# xmcd
#
# Track frame offsets: 
#        150
#        43032
#        77405
#        117617
#        142777
#        178420
#        216565
#        244085
#        260565
#        294272
#        307962
#
# Disc length: 4323 seconds
#
# Revision: 3
# Processed by: cddbd v1.5.2PL0 Copyright (c) Steve Scherf et al.
# Submitted via: ExactAudioCopy v0.99pb5
#
DISCID=a110e10b
DTITLE=John Abercrombie-Mark Feldman-Marc Johnson-Joey Baron - Class T
DTITLE=rip
DYEAR=2004
DGENRE=Jazz
TTITLE0=Dansir
TTITLE1=Risky Business
TTITLE2=Descending Grace
TTITLE3=Illinoise
TTITLE4=Cat Walk
TTITLE5=Excuse My Shoes
TTITLE6=Swirls
TTITLE7=Jack And Betty
TTITLE8=Class Trip
TTITLE9=Soldier's Song
TTITLE10=Epilogue
EXTD=YEAR: 2004
EXTT0=
EXTT1=
EXTT2=
EXTT3=
EXTT4=
EXTT5=
EXTT6=
EXTT7=
EXTT8=
EXTT9=
EXTT10=
PLAYORDER=
